PathFileType	4	(X/Y/Z)	C:\Users\Basilio\Documents\Thesis Gigler\squatting_fais\c3dfiles\058\SLS_front_pre1\markers_experimental.trc
DataRate	CameraRate	NumFrames	NumMarkers	Units	OrigDataRate	OrigDataStartFrame	OrigNumFrames
200.000000	200.000000	4	61	mm	200.000000	903	1204
Frame#	Time	FHD			LBHD			RBHD			C7			T10			CLAV			LSHO			LUUPA			LMUPA			LDUPA			LLEP			LMEP			LUL			LRFIN			RSHO			RUPA1			RMUPA			RDUPA			RLEP			RMEP			RRAD			RUL			RUFIN			LASI			RASI			USACR			LSACR			RSACR			LTHI1			LTHI2			LTHI3			LTHI4			LLFC			LMFC			LTIB1			LTIB2			LTIB3			LTIB4			LLMAL			LMMAL			LHEE			LMT1			LMT2			LMT5			RTHI			RTHI2			RTHI3			RTHI4			RLFC			RMFC			RTIB1			RTIB2			RTIB3			RTIB4			RLMAL			RMMAL			RHEE			RMT1			RMT2			RMT5			LRAD			
		X1	Y1	Z1	X2	Y2	Z2	X3	Y3	Z3	X4	Y4	Z4	X5	Y5	Z5	X6	Y6	Z6	X7	Y7	Z7	X8	Y8	Z8	X9	Y9	Z9	X10	Y10	Z10	X11	Y11	Z11	X12	Y12	Z12	X13	Y13	Z13	X14	Y14	Z14	X15	Y15	Z15	X16	Y16	Z16	X17	Y17	Z17	X18	Y18	Z18	X19	Y19	Z19	X20	Y20	Z20	X21	Y21	Z21	X22	Y22	Z22	X23	Y23	Z23	X24	Y24	Z24	X25	Y25	Z25	X26	Y26	Z26	X27	Y27	Z27	X28	Y28	Z28	X29	Y29	Z29	X30	Y30	Z30	X31	Y31	Z31	X32	Y32	Z32	X33	Y33	Z33	X34	Y34	Z34	X35	Y35	Z35	X36	Y36	Z36	X37	Y37	Z37	X38	Y38	Z38	X39	Y39	Z39	X40	Y40	Z40	X41	Y41	Z41	X42	Y42	Z42	X43	Y43	Z43	X44	Y44	Z44	X45	Y45	Z45	X46	Y46	Z46	X47	Y47	Z47	X48	Y48	Z48	X49	Y49	Z49	X50	Y50	Z50	X51	Y51	Z51	X52	Y52	Z52	X53	Y53	Z53	X54	Y54	Z54	X55	Y55	Z55	X56	Y56	Z56	X57	Y57	Z57	X58	Y58	Z58	X59	Y59	Z59	X60	Y60	Z60	X61	Y61	Z61	

904	4.515	-279.9931945800782	1822.456298828125	-605.0637207031251	-433.3096313476564	1764.425659179688	-680.0366210937501	-266.8648376464844	1830.522094726563	-746.7811279296876	-447.3629455566407	1602.850708007813	-690.5728759765626	-449.3195800781251	1299.33251953125	-682.1137695312501	-286.5004272460938	1565.472290039063	-679.8498535156251	-303.0711669921876	1613.189819335938	-836.4727172851565	-157.4726867675782	1524.404418945313	-954.9700927734377	-128.5440979003907	1561.187133789063	-936.2996215820315	-87.76771545410158	1521.91796875	-956.2036743164065	-10.69145965576172	1521.062255859375	-947.422790527344	-7.599845886230471	1464.58349609375	-912.3588867187502	259.5153808593751	1546.9638671875	-912.7745361328127	354.6958618164063	1544.614379882813	-831.7139892578127	-310.3295288085938	1612.003051757813	-522.1627807617189	-153.8150329589844	1514.488891601563	-414.5846252441407	-128.6667175292969	1552.996337890625	-435.453826904297	-84.41747283935548	1520.842407226563	-414.0383911132814	-17.31359291076661	1510.319946289063	-420.4538574218751	-10.38616943359375	1454.141479492188	-473.5164489746095	nan	nan	nan	252.9669952392579	1546.158081054688	-423.0753784179689	346.4600830078126	1555.219848632813	-490.2349853515626	-285.0307006835938	1120.120849609375	-843.7672119140627	-260.8879699707032	1081.191650390625	-607.8790283203126	-462.6330566406251	1178.401489257813	-684.8355102539064	-474.390838623047	1151.06201171875	-715.5106811523439	-461.712127685547	1142.709106445313	-659.8830566406251	-265.3587341308594	859.116882324219	-934.4042968750002	-218.6961059570313	788.5541992187502	-927.9822998046877	-177.7160034179688	796.6041259765627	-898.4981689453127	-233.3723907470704	731.0133056640626	-925.837097167969	-205.7025604248047	633.7254638671876	-919.0034179687502	-193.4028472900391	620.7495727539064	-793.1797485351565	-116.2661361694336	517.9146118164064	-884.9605102539065	-150.3397827148438	471.7342224121095	-947.7736816406252	-112.5901412963867	472.5597534179689	-921.6231079101565	-88.29546356201173	394.3394775390626	-901.3980102539065	-87.59259033203126	188.0197448730469	-932.523620605469	-69.97384643554689	203.761703491211	-841.652038574219	-137.6546173095703	134.0209503173828	-883.7654418945315	77.94202423095705	179.767807006836	-860.5966796875002	83.67945861816408	187.5027313232422	-906.6203613281252	44.18421173095704	157.4739990234375	-961.815124511719	-374.3319702148438	869.5677490234377	-557.1719360351564	-339.0552062988282	813.501647949219	-556.8776855468751	-305.9355163574219	813.1262207031252	-558.4049072265626	-367.7712402343751	737.5092163085939	-580.9800415039064	-363.1917724609376	558.3948364257814	-613.1926879882814	-325.8843994140626	554.8892211914064	-745.2238159179689	-305.6409301757813	360.8305664062501	-708.8089599609376	-346.1690368652344	277.1133728027344	-652.1240234375001	-308.1560974121094	273.3760375976563	-681.5487060546876	-316.7642822265626	230.899887084961	-721.4648437500001	-374.9119567871094	118.0697479248047	-690.5147705078126	-342.1605224609376	146.001205444336	-774.6163330078127	-438.5699768066407	102.8027267456055	-755.4463500976564	-229.5164642333985	60.83517074584962	-768.5166625976565	-221.8030395507813	59.12516403198244	-715.9585571289064	-271.5134277343751	26.56958007812501	-665.0344238281251	252.3743438720704	1521.83154296875	-835.301452636719	
905	4.52	-279.8618164062501	1822.46728515625	-605.1360473632814	-433.1456909179689	1764.4580078125	-680.0506591796876	-266.5147094726563	1830.510375976563	-746.8864746093751	-447.1219177246095	1602.764526367188	-690.6306152343751	-449.0072631835939	1299.30810546875	-682.0879516601564	-286.3067932128907	1565.427368164063	-679.9383544921876	-302.8361511230469	1613.134765625	-836.5229492187502	-157.3855285644532	1524.368286132813	-954.9373168945315	-128.1082305908203	1561.243774414063	-936.3281250000002	-87.49102020263673	1521.890502929688	-956.2072753906252	-10.34162998199463	1521.067016601563	-947.5146484375002	-7.269185543060305	1464.438110351563	-912.4290161132815	259.8073730468751	1546.933837890625	-912.8033447265627	355.0779418945313	1544.648193359375	-831.7691040039065	-310.0328063964844	1612.050903320313	-522.1697387695314	-153.7214508056641	1514.4765625	-414.6624145507814	-128.57568359375	1552.951904296875	-435.5335693359376	-84.1869583129883	1520.903076171875	-414.113494873047	-17.06021118164063	1510.293579101563	-420.5733337402345	-10.26869583129883	1454.013549804688	-473.5675659179689	nan	nan	nan	253.0108795166016	1545.816528320313	-423.1500854492189	346.6031188964844	1554.891235351563	-490.3276367187501	-284.8782653808594	1119.992431640625	-843.693542480469	-260.7901916503907	1081.09228515625	-607.8581542968751	-462.4338378906251	1178.365112304688	-684.7368164062501	-474.0714721679689	1151.152954101563	-715.4551391601564	-461.4669494628907	1142.732421875	-659.8067016601564	-265.1979064941407	859.021911621094	-934.3444824218752	-218.7092437744141	788.4620361328127	-927.829528808594	-177.6066436767578	796.5075683593752	-898.2368774414065	-233.2577819824219	730.9896240234376	-925.7419433593752	-205.7823638916016	633.6436767578126	-919.0284423828127	-193.8052978515626	620.5531616210939	-792.9966430664065	-116.2923660278321	517.8364868164064	-884.8504638671877	-150.3143920898438	471.6776123046876	-947.6884765625002	-112.576171875	472.5244750976564	-921.6174926757815	-88.2117385864258	394.2550048828126	-901.2623291015627	-87.50621795654298	187.9555816650391	-932.3367309570315	-69.84866333007814	203.6327819824219	-841.455505371094	-137.5457916259766	133.9434661865235	-883.5800781250002	78.04351806640626	179.7721557617188	-860.379089355469	83.49790954589845	187.1309204101563	-906.4216918945315	44.38152313232423	157.4992370605469	-961.537536621094	-374.2188110351563	869.5083618164065	-557.1166992187501	-338.8708496093751	813.481628417969	-556.8248901367189	-305.6788635253907	813.0438232421877	-558.4515991210939	-367.7356567382813	737.5306396484376	-580.9484863281251	-363.3689575195313	558.4335327148439	-613.1512451171876	-326.0935363769532	554.8078002929689	-745.2250366210939	-305.6412353515626	360.8600769042969	-708.8049926757814	-346.1687622070313	277.1127624511719	-652.1224975585939	-308.1040344238282	273.3370971679688	-681.4949951171876	-316.6921691894532	230.9341735839844	-721.4472656250001	-374.9434509277344	118.0585098266602	-690.5777587890626	-342.2239685058594	145.9994659423828	-774.6694335937502	-438.583465576172	102.763916015625	-755.4703369140626	-229.6082305908204	60.68349838256837	-768.5825805664065	-221.8034973144532	59.12818908691408	-715.9141235351564	-271.5014648437501	26.51850509643555	-665.0572509765626	252.3695983886719	1521.6123046875	-835.4246826171877	
906	4.525	-279.4616394042969	1822.564208984375	-605.1523437500001	-433.0269470214845	1764.479614257813	-680.1309814453126	-266.1664123535157	1830.436279296875	-747.0427856445314	-446.8147888183595	1602.749145507813	-690.6928100585939	-448.7366027832032	1299.25537109375	-682.0851440429689	-286.0371704101563	1565.441162109375	-679.9675903320314	-302.5699157714844	1613.099487304688	-836.5405883789065	-156.8817138671875	1524.279174804688	-954.9245605468752	-127.9939498901367	1561.151000976563	-936.3070068359377	-87.26814270019533	1521.861938476563	-956.1812133789065	-10.07898330688477	1520.978759765625	-947.481140136719	-7.137126922607424	1464.414916992188	-912.296813964844	260.1161193847657	1546.902465820313	-912.8708496093752	355.2450561523438	1544.636352539063	-831.8257446289065	-309.7196350097657	1612.1865234375	-522.2272338867189	-153.6297912597657	1514.466430664063	-414.6247863769532	-128.4837493896485	1552.902709960938	-435.6077575683595	-84.05921936035158	1520.819580078125	-414.1147766113282	-16.91522026062012	1510.2255859375	-420.5742492675782	-10.11179351806641	1453.906005859375	-473.5731201171876	nan	nan	nan	253.1901397705079	1545.75537109375	-423.197479248047	347.0065307617188	1554.849243164063	-490.2655639648439	-284.7593078613282	1119.9306640625	-843.7116699218752	-260.6820068359376	1081.015747070313	-607.8216552734376	-462.0643615722657	1178.413818359375	-684.7330932617189	-473.828338623047	1151.21337890625	-715.4645996093751	-461.2536621093751	1142.71728515625	-659.7754516601564	-264.9771728515626	858.9426269531252	-934.2354736328127	-218.5390625000001	788.3446044921877	-927.7236938476565	-177.5720367431641	796.4295654296877	-898.0430908203127	-233.2643585205079	730.9083251953126	-925.7110595703127	-205.8422851562501	633.5095214843751	-919.0061035156252	-194.2012176513672	620.1508789062501	-792.7568359375002	-116.3945083618164	517.5725708007814	-884.6485595703127	-150.312744140625	471.5138244628907	-947.537536621094	-112.5094604492188	472.2527465820314	-921.483825683594	-88.2299270629883	394.2322387695314	-901.2211914062502	-87.3779983520508	187.8482055664063	-932.1687011718752	-69.68098449707033	203.5953063964844	-841.2956542968752	-137.4869689941407	133.9058074951172	-883.3799438476565	78.1164016723633	179.7432708740235	-860.126403808594	83.54566192626955	187.1239776611328	-906.1763305664065	44.59461975097657	157.5883026123047	-961.245544433594	-374.0983581542969	869.4975585937502	-557.0130615234376	-338.7566528320313	813.5258789062502	-556.7352294921876	-305.5274658203126	813.0175781250002	-558.4315185546876	-367.6615905761719	737.5279541015626	-580.8601684570314	-363.3877868652344	558.4293823242189	-613.0953979492189	-326.2908325195313	554.7719726562501	-745.2470092773439	-305.6647338867188	360.8418884277344	-708.8385620117189	-346.1129150390626	277.0702209472657	-652.2001953125001	-308.1496276855469	273.3826904296876	-681.6084594726564	-316.7456054687501	230.9453430175782	-721.5134887695314	-374.9502258300782	118.0753631591797	-690.5774536132814	-342.2293395996094	145.9985809326172	-774.7243652343752	-438.5902709960939	102.8459396362305	-755.4817504882814	-229.529525756836	60.874568939209	-768.5023193359377	-221.7971649169922	59.20248031616212	-715.9702758789064	-271.5014648437501	26.51849746704102	-665.0572509765626	252.4369354248047	1521.517456054688	-835.5424804687502	
907	4.53	-278.7624206542969	1822.559692382813	-605.4874267578126	-432.626678466797	1764.46337890625	-680.2376098632814	-265.8934631347657	1830.45654296875	-747.1542358398439	-446.5259094238282	1602.71484375	-690.7958984375001	-448.4197998046876	1299.302368164063	-682.1256103515626	-285.8348083496094	1565.3818359375	-679.9596557617189	-302.2852478027344	1613.079711914063	-836.539733886719	-156.6348571777344	1524.224487304688	-954.882019042969	-127.6605377197266	1561.136474609375	-936.3516845703127	-87.02232360839845	1521.791625976563	-956.1919555664065	-9.908119201660158	1520.85791015625	-947.488952636719	-6.844942569732668	1464.475708007813	-912.3853759765627	260.3326721191407	1546.857788085938	-912.8711547851565	355.5983886718751	1544.55078125	-831.8284301757815	-309.4246215820313	1612.079833984375	-522.3668212890626	-153.2787017822266	1514.383056640625	-414.7224121093751	-128.3942413330078	1553.02685546875	-435.847625732422	-83.89610290527345	1520.720825195313	-414.155242919922	-16.6691951751709	1510.069458007813	-420.6446533203126	-9.925114631652834	1453.791259765625	-473.614715576172	nan	nan	nan	253.3933258056641	1545.639038085938	-423.3118286132814	347.4837341308594	1554.801513671875	-490.2441406250001	-284.6550903320313	1119.82470703125	-843.6596679687502	-260.4881591796876	1080.925170898438	-607.8450317382814	-461.7296752929689	1178.462036132813	-684.7416992187501	-473.6087341308595	1151.279541015625	-715.4418334960939	-461.0279235839845	1142.778442382813	-659.7446289062501	-264.9241027832032	858.8916015625002	-934.1641235351565	-218.4831085205079	788.2859497070315	-927.6059570312502	-177.745101928711	796.2940063476565	-897.797302246094	-233.2697448730469	730.8773193359376	-925.623962402344	-205.8536224365235	633.4117431640626	-918.9644775390627	-194.3881530761719	619.9904785156251	-792.5195312500002	-116.5240478515625	517.3892822265626	-884.5056152343752	-150.2686004638672	471.4112854003907	-947.4421386718752	-112.5928039550782	472.0023193359376	-921.2669067382815	-88.18356323242189	394.2037963867189	-901.138122558594	-87.31479644775392	187.7315521240235	-931.9810791015627	-69.60858154296876	203.6022186279297	-841.1242675781252	-137.4542083740235	133.8811340332032	-883.2542114257815	78.25807189941408	179.7660522460938	-859.8162841796877	83.70822906494142	187.066650390625	-905.8723144531252	44.51899337768555	157.5314178466797	-961.1041259765627	-373.9672851562501	869.5227050781252	-556.8643798828126	-338.6629943847657	813.5968017578127	-556.5944824218751	-305.4863586425782	812.997985839844	-558.4241943359376	-367.5799560546876	737.6071777343751	-580.7743530273439	-363.4123229980469	558.4097290039064	-613.0706787109376	-326.4151916503907	554.7677612304689	-745.2929077148439	-305.6482543945313	360.8291015625001	-708.8099975585939	-346.0827636718751	277.0561218261719	-652.1867065429689	-308.1408081054688	273.3619689941407	-681.6051025390626	-316.6813659667969	230.8692932128907	-721.4956054687501	-374.9071655273438	118.1564254760742	-690.6111450195314	-342.2335205078126	146.0085906982422	-774.768981933594	-438.5885314941407	102.8494338989258	-755.5166625976564	-229.5048370361329	60.66218948364259	-768.5774536132815	-221.8309631347657	59.08476638793947	-715.9803466796876	-271.4576721191407	26.58771705627442	-665.0330200195314	252.8803405761719	1521.610107421875	-835.5188598632815	
